<mxfile host="app.diagrams.net" modified="2020-12-28T07:58:46.716Z" agent="5.0 (Windows NT 10.0; Win64; x64) AppleWebKit/537.36 (KHTML, like Gecko) Chrome/72.0.3626.119 Safari/537.36" etag="toefkJKuHGvrtRN0dbaq" version="14.1.1" type="github">
  <diagram id="kjNfu8Xx3Lx_zaVhcjmf" name="Page-1">
    <mxGraphModel dx="2249" dy="762" grid="1" gridSize="10" guides="1" tooltips="1" connect="1" arrows="1" fold="1" page="1" pageScale="1" pageWidth="827" pageHeight="1169" math="0" shadow="0">
      <root>
        <mxCell id="0" />
        <mxCell id="1" parent="0" />
        <mxCell id="IUPC3U68XSw1S8rsNcTR-1" value="" style="rounded=0;whiteSpace=wrap;html=1;strokeColor=#FFF1D1;" parent="1" vertex="1">
          <mxGeometry x="10" y="860" width="170" height="130" as="geometry" />
        </mxCell>
        <mxCell id="bneU8rVOEiQd-OsVHFBt-6" style="edgeStyle=orthogonalEdgeStyle;rounded=0;orthogonalLoop=1;jettySize=auto;html=1;entryX=0;entryY=0.5;entryDx=0;entryDy=0;entryPerimeter=0;" parent="1" source="bneU8rVOEiQd-OsVHFBt-2" target="bneU8rVOEiQd-OsVHFBt-5" edge="1">
          <mxGeometry relative="1" as="geometry">
            <Array as="points">
              <mxPoint x="170" y="140" />
              <mxPoint x="170" y="300" />
            </Array>
          </mxGeometry>
        </mxCell>
        <mxCell id="bneU8rVOEiQd-OsVHFBt-8" value="qq.foundersc.com:8088" style="edgeLabel;html=1;align=center;verticalAlign=middle;resizable=0;points=[];" parent="bneU8rVOEiQd-OsVHFBt-6" vertex="1" connectable="0">
          <mxGeometry x="-0.1765" relative="1" as="geometry">
            <mxPoint as="offset" />
          </mxGeometry>
        </mxCell>
        <mxCell id="bneU8rVOEiQd-OsVHFBt-2" value="手机端" style="outlineConnect=0;fontColor=#232F3E;gradientColor=none;strokeColor=#232F3E;fillColor=#ffffff;dashed=0;verticalLabelPosition=bottom;verticalAlign=top;align=center;html=1;fontSize=12;fontStyle=0;aspect=fixed;shape=mxgraph.aws4.resourceIcon;resIcon=mxgraph.aws4.mobile_client;" parent="1" vertex="1">
          <mxGeometry x="60" y="110" width="60" height="60" as="geometry" />
        </mxCell>
        <mxCell id="bneU8rVOEiQd-OsVHFBt-7" style="edgeStyle=orthogonalEdgeStyle;rounded=0;orthogonalLoop=1;jettySize=auto;html=1;entryX=1;entryY=0.5;entryDx=0;entryDy=0;entryPerimeter=0;" parent="1" source="bneU8rVOEiQd-OsVHFBt-3" target="bneU8rVOEiQd-OsVHFBt-5" edge="1">
          <mxGeometry relative="1" as="geometry">
            <Array as="points">
              <mxPoint x="510" y="145" />
              <mxPoint x="510" y="300" />
            </Array>
          </mxGeometry>
        </mxCell>
        <mxCell id="bneU8rVOEiQd-OsVHFBt-9" value="qq.foundersc.com:8088" style="edgeLabel;html=1;align=center;verticalAlign=middle;resizable=0;points=[];" parent="bneU8rVOEiQd-OsVHFBt-7" vertex="1" connectable="0">
          <mxGeometry x="-0.3556" y="-2" relative="1" as="geometry">
            <mxPoint x="2" y="29" as="offset" />
          </mxGeometry>
        </mxCell>
        <mxCell id="bneU8rVOEiQd-OsVHFBt-3" value="电脑端" style="fontColor=#0066CC;verticalAlign=top;verticalLabelPosition=bottom;labelPosition=center;align=center;html=1;outlineConnect=0;fillColor=#CCCCCC;strokeColor=#6881B3;gradientColor=none;gradientDirection=north;strokeWidth=2;shape=mxgraph.networks.pc;" parent="1" vertex="1">
          <mxGeometry x="560" y="110" width="100" height="70" as="geometry" />
        </mxCell>
        <mxCell id="bneU8rVOEiQd-OsVHFBt-13" style="edgeStyle=orthogonalEdgeStyle;rounded=0;orthogonalLoop=1;jettySize=auto;html=1;entryX=0.5;entryY=0;entryDx=0;entryDy=0;entryPerimeter=0;" parent="1" source="bneU8rVOEiQd-OsVHFBt-4" target="bneU8rVOEiQd-OsVHFBt-11" edge="1">
          <mxGeometry relative="1" as="geometry" />
        </mxCell>
        <mxCell id="bneU8rVOEiQd-OsVHFBt-27" value="内网访问" style="edgeLabel;html=1;align=center;verticalAlign=middle;resizable=0;points=[];" parent="bneU8rVOEiQd-OsVHFBt-13" vertex="1" connectable="0">
          <mxGeometry x="-0.4236" y="47" relative="1" as="geometry">
            <mxPoint x="-47" y="47" as="offset" />
          </mxGeometry>
        </mxCell>
        <mxCell id="bneU8rVOEiQd-OsVHFBt-14" style="edgeStyle=orthogonalEdgeStyle;rounded=0;orthogonalLoop=1;jettySize=auto;html=1;entryX=0.5;entryY=0;entryDx=0;entryDy=0;entryPerimeter=0;" parent="1" source="bneU8rVOEiQd-OsVHFBt-4" target="bneU8rVOEiQd-OsVHFBt-12" edge="1">
          <mxGeometry relative="1" as="geometry" />
        </mxCell>
        <mxCell id="bneU8rVOEiQd-OsVHFBt-28" value="内网访问" style="edgeLabel;html=1;align=center;verticalAlign=middle;resizable=0;points=[];" parent="bneU8rVOEiQd-OsVHFBt-14" vertex="1" connectable="0">
          <mxGeometry x="-0.461" y="-51" relative="1" as="geometry">
            <mxPoint as="offset" />
          </mxGeometry>
        </mxCell>
        <mxCell id="bneU8rVOEiQd-OsVHFBt-16" style="edgeStyle=orthogonalEdgeStyle;rounded=0;orthogonalLoop=1;jettySize=auto;html=1;" parent="1" source="bneU8rVOEiQd-OsVHFBt-4" target="bneU8rVOEiQd-OsVHFBt-15" edge="1">
          <mxGeometry relative="1" as="geometry" />
        </mxCell>
        <mxCell id="bneU8rVOEiQd-OsVHFBt-4" value="nginx服务路由" style="shape=image;html=1;verticalAlign=top;verticalLabelPosition=bottom;labelBackgroundColor=#ffffff;imageAspect=0;aspect=fixed;image=https://cdn4.iconfinder.com/data/icons/logos-brands-5/24/nginx-128.png" parent="1" vertex="1">
          <mxGeometry x="308" y="430" width="70" height="70" as="geometry" />
        </mxCell>
        <mxCell id="bneU8rVOEiQd-OsVHFBt-10" style="edgeStyle=orthogonalEdgeStyle;rounded=0;orthogonalLoop=1;jettySize=auto;html=1;" parent="1" source="bneU8rVOEiQd-OsVHFBt-5" target="bneU8rVOEiQd-OsVHFBt-4" edge="1">
          <mxGeometry relative="1" as="geometry" />
        </mxCell>
        <mxCell id="bneU8rVOEiQd-OsVHFBt-5" value="硬件防火墙" style="fontColor=#0066CC;verticalAlign=top;verticalLabelPosition=bottom;labelPosition=center;align=center;html=1;outlineConnect=0;fillColor=#CCCCCC;strokeColor=#6881B3;gradientColor=none;gradientDirection=north;strokeWidth=2;shape=mxgraph.networks.firewall;" parent="1" vertex="1">
          <mxGeometry x="300" y="260" width="86" height="80" as="geometry" />
        </mxCell>
        <mxCell id="bneU8rVOEiQd-OsVHFBt-25" style="edgeStyle=orthogonalEdgeStyle;rounded=0;orthogonalLoop=1;jettySize=auto;html=1;" parent="1" source="bneU8rVOEiQd-OsVHFBt-11" target="bneU8rVOEiQd-OsVHFBt-21" edge="1">
          <mxGeometry relative="1" as="geometry" />
        </mxCell>
        <mxCell id="IUPC3U68XSw1S8rsNcTR-2" style="edgeStyle=orthogonalEdgeStyle;rounded=0;orthogonalLoop=1;jettySize=auto;html=1;" parent="1" source="bneU8rVOEiQd-OsVHFBt-11" edge="1">
          <mxGeometry relative="1" as="geometry">
            <mxPoint x="90" y="860" as="targetPoint" />
            <Array as="points">
              <mxPoint x="225" y="790" />
              <mxPoint x="90" y="790" />
            </Array>
          </mxGeometry>
        </mxCell>
        <mxCell id="I2nzyUuCN47IVgSwzWdf-2" style="edgeStyle=orthogonalEdgeStyle;rounded=0;orthogonalLoop=1;jettySize=auto;html=1;entryX=0.995;entryY=0.63;entryDx=0;entryDy=0;entryPerimeter=0;" edge="1" parent="1" source="bneU8rVOEiQd-OsVHFBt-11" target="I2nzyUuCN47IVgSwzWdf-1">
          <mxGeometry relative="1" as="geometry" />
        </mxCell>
        <mxCell id="I2nzyUuCN47IVgSwzWdf-3" value="内网socket连接" style="edgeLabel;html=1;align=center;verticalAlign=middle;resizable=0;points=[];" vertex="1" connectable="0" parent="I2nzyUuCN47IVgSwzWdf-2">
          <mxGeometry x="-0.0651" y="-2" relative="1" as="geometry">
            <mxPoint as="offset" />
          </mxGeometry>
        </mxCell>
        <mxCell id="bneU8rVOEiQd-OsVHFBt-11" value="&lt;br&gt;&lt;br&gt;&lt;br&gt;&lt;br&gt;&lt;br&gt;&lt;br&gt;手机端服务&amp;nbsp; &amp;nbsp; 10.166.20.157" style="html=1;dashed=0;whitespace=wrap;fillColor=#2875E2;strokeColor=#ffffff;points=[[0.005,0.63,0],[0.1,0.2,0],[0.9,0.2,0],[0.5,0,0],[0.995,0.63,0],[0.72,0.99,0],[0.5,1,0],[0.28,0.99,0]];shape=mxgraph.kubernetes.icon;prIcon=api" parent="1" vertex="1">
          <mxGeometry x="200" y="670" width="50" height="48" as="geometry" />
        </mxCell>
        <mxCell id="bneU8rVOEiQd-OsVHFBt-26" style="edgeStyle=orthogonalEdgeStyle;rounded=0;orthogonalLoop=1;jettySize=auto;html=1;entryX=0.5;entryY=0;entryDx=0;entryDy=0;" parent="1" source="bneU8rVOEiQd-OsVHFBt-12" target="bneU8rVOEiQd-OsVHFBt-21" edge="1">
          <mxGeometry relative="1" as="geometry" />
        </mxCell>
        <mxCell id="bneU8rVOEiQd-OsVHFBt-29" value="10.166.40.12" style="edgeLabel;html=1;align=center;verticalAlign=middle;resizable=0;points=[];" parent="bneU8rVOEiQd-OsVHFBt-26" vertex="1" connectable="0">
          <mxGeometry x="0.5576" y="1" relative="1" as="geometry">
            <mxPoint x="-1.04" y="7.53" as="offset" />
          </mxGeometry>
        </mxCell>
        <mxCell id="IUPC3U68XSw1S8rsNcTR-3" style="edgeStyle=orthogonalEdgeStyle;rounded=0;orthogonalLoop=1;jettySize=auto;html=1;" parent="1" source="bneU8rVOEiQd-OsVHFBt-12" edge="1">
          <mxGeometry relative="1" as="geometry">
            <mxPoint x="90" y="860" as="targetPoint" />
            <Array as="points">
              <mxPoint x="455" y="790" />
              <mxPoint x="90" y="790" />
            </Array>
          </mxGeometry>
        </mxCell>
        <mxCell id="IUPC3U68XSw1S8rsNcTR-10" value="10.166.40.12" style="edgeLabel;html=1;align=center;verticalAlign=middle;resizable=0;points=[];" parent="IUPC3U68XSw1S8rsNcTR-3" vertex="1" connectable="0">
          <mxGeometry x="0.5502" y="1" relative="1" as="geometry">
            <mxPoint x="-44.06" y="29" as="offset" />
          </mxGeometry>
        </mxCell>
        <mxCell id="bneU8rVOEiQd-OsVHFBt-12" value="&lt;br&gt;&lt;br&gt;&lt;br&gt;&lt;br&gt;&lt;br&gt;&lt;br&gt;电脑端服务&amp;nbsp; &amp;nbsp; &amp;nbsp;10.166.20.157" style="html=1;dashed=0;whitespace=wrap;fillColor=#2875E2;strokeColor=#ffffff;points=[[0.005,0.63,0],[0.1,0.2,0],[0.9,0.2,0],[0.5,0,0],[0.995,0.63,0],[0.72,0.99,0],[0.5,1,0],[0.28,0.99,0]];shape=mxgraph.kubernetes.icon;prIcon=api" parent="1" vertex="1">
          <mxGeometry x="430" y="670" width="50" height="48" as="geometry" />
        </mxCell>
        <mxCell id="bneU8rVOEiQd-OsVHFBt-19" style="edgeStyle=orthogonalEdgeStyle;rounded=0;orthogonalLoop=1;jettySize=auto;html=1;entryX=0.5;entryY=0;entryDx=0;entryDy=0;entryPerimeter=0;" parent="1" source="bneU8rVOEiQd-OsVHFBt-15" target="bneU8rVOEiQd-OsVHFBt-11" edge="1">
          <mxGeometry relative="1" as="geometry" />
        </mxCell>
        <mxCell id="bneU8rVOEiQd-OsVHFBt-20" style="edgeStyle=orthogonalEdgeStyle;rounded=0;orthogonalLoop=1;jettySize=auto;html=1;entryX=0.5;entryY=0;entryDx=0;entryDy=0;entryPerimeter=0;" parent="1" source="bneU8rVOEiQd-OsVHFBt-15" target="bneU8rVOEiQd-OsVHFBt-12" edge="1">
          <mxGeometry relative="1" as="geometry" />
        </mxCell>
        <mxCell id="bneU8rVOEiQd-OsVHFBt-15" value="资源文件" style="outlineConnect=0;fontColor=#232F3E;gradientColor=none;fillColor=#277116;strokeColor=none;dashed=0;verticalLabelPosition=bottom;verticalAlign=top;align=center;html=1;fontSize=12;fontStyle=0;aspect=fixed;pointerEvents=1;shape=mxgraph.aws4.iot_device_jobs_resource;" parent="1" vertex="1">
          <mxGeometry x="316" y="552" width="54" height="65.81" as="geometry" />
        </mxCell>
        <mxCell id="bneU8rVOEiQd-OsVHFBt-21" value="" style="rounded=0;whiteSpace=wrap;html=1;strokeColor=#FFF1D1;" parent="1" vertex="1">
          <mxGeometry x="240" y="860" width="280" height="130" as="geometry" />
        </mxCell>
        <mxCell id="bneU8rVOEiQd-OsVHFBt-22" value="mysql" style="strokeWidth=2;html=1;shape=mxgraph.flowchart.database;whiteSpace=wrap;" parent="1" vertex="1">
          <mxGeometry x="60" y="890" width="60" height="60" as="geometry" />
        </mxCell>
        <mxCell id="bneU8rVOEiQd-OsVHFBt-23" value="redis" style="strokeWidth=2;html=1;shape=mxgraph.flowchart.database;whiteSpace=wrap;" parent="1" vertex="1">
          <mxGeometry x="308" y="880" width="60" height="60" as="geometry" />
        </mxCell>
        <mxCell id="bneU8rVOEiQd-OsVHFBt-24" value="mongodb" style="strokeWidth=2;html=1;shape=mxgraph.flowchart.database;whiteSpace=wrap;" parent="1" vertex="1">
          <mxGeometry x="420" y="880" width="60" height="60" as="geometry" />
        </mxCell>
        <mxCell id="I2nzyUuCN47IVgSwzWdf-1" value="&lt;br&gt;&lt;br&gt;&lt;br&gt;&lt;br&gt;&lt;br&gt;&lt;br&gt;socket服务&amp;nbsp; &amp;nbsp; 10.166.20.157:8975" style="html=1;dashed=0;whitespace=wrap;fillColor=#2875E2;strokeColor=#ffffff;points=[[0.005,0.63,0],[0.1,0.2,0],[0.9,0.2,0],[0.5,0,0],[0.995,0.63,0],[0.72,0.99,0],[0.5,1,0],[0.28,0.99,0]];shape=mxgraph.kubernetes.icon;prIcon=api" vertex="1" parent="1">
          <mxGeometry x="-130" y="660" width="50" height="54" as="geometry" />
        </mxCell>
      </root>
    </mxGraphModel>
  </diagram>
</mxfile>
